{"title":"Nawabzaade 2018 Hindi 720p WEB-DL x264 ESub [MW]","magnet":"magnet:?xt=urn:btih:710ee1f4c13b520d814cb10c236b1d88d5d01f47&dn=Nawabzaade+2018+Hindi+720p+WEB-DL+x264+ESub+%5BMW%5D&tr=udp%3A%2F%2Ftracker.leechers-paradise.org%3A6969&tr=udp%3A%2F%2Fzer0day.ch%3A1337&tr=udp%3A%2F%2Fopen.demonii.com%3A1337&tr=udp%3A%2F%2Ftracker.coppersurfer.tk%3A6969&tr=udp%3A%2F%2Fexodus.desync.com%3A6969","uploader":"MFreaky","categoryP":"video","categoryS":"hd___movies","size":"928888355","seeders":"29","leechers":"39","description":" <a href=\"https://pichub.site/image/Eu6iB\" rel=\"nofollow\" target=\"_NEW\">https://pichub.site/image/Eu6iB</a> <a href=\"\nhttps://pichub.site/image/EuXb6\" rel=\"nofollow\" target=\"_NEW\">\nhttps://pichub.site/image/EuXb6</a> <a href=\"\nhttps://pichub.site/image/Eu3v4\" rel=\"nofollow\" target=\"_NEW\">\nhttps://pichub.site/image/Eu3v4</a> <a href=\"\nhttps://pichub.site/image/Eusct\" rel=\"nofollow\" target=\"_NEW\">\nhttps://pichub.site/image/Eusct</a> <a href=\"\nhttps://pichub.site/image/EuZ9p\" rel=\"nofollow\" target=\"_NEW\">\nhttps://pichub.site/image/EuZ9p</a>\r\n\r\nIMDB <a href=\"\nhttps://www.imdb.com/title/tt8060624/\" rel=\"nofollow\" target=\"_NEW\">\nhttps://www.imdb.com/title/tt8060624/</a>\r\n\r\nVideo\r\nFormat                                   : AVC\r\nFormat/Info                              : Advanced Video Codec\r\nFormat profile                           : High@L4.1\r\nFormat settings                          : CABAC / 4 Ref Frames\r\nFormat settings, CABAC                   : Yes\r\nFormat settings, RefFrames               : 4 frames\r\nCodec ID                                 : V_MPEG4/ISO/AVC\r\nDuration                                 : 1 h 49 min\r\nBit rate                                 : 1 000 kb/s\r\nWidth                                    : 1 280 pixels\r\nHeight                                   : 532 pixels\r\nDisplay aspect ratio                     : 2.40:1\r\nFrame rate mode                          : Constant\r\nFrame rate                               : 24.000 FPS\r\nColor space                              : YUV\r\nChroma subsampling                       : 4:2:0\r\nBit depth                                : 8 bits\r\nScan type                                : Progressive\r\nBits/(Pixel*Frame)                       : 0.061\r\nStream size                              : 783 MiB (88%)\r\nWriting library                          : x264 core 155 r2901 7d0ff22\r\n\r\nAudio\r\nFormat                                   : AAC\r\nFormat/Info                              : Advanced Audio Codec\r\nFormat profile                           : LC\r\nCodec ID                                 : A_AAC-2\r\nDuration                                 : 1 h 49 min\r\nBit rate                                 : 128 kb/s\r\nChannel(s)                               : 2 channels\r\nChannel positions                        : Front: L R\r\nSampling rate                            : 48.0 kHz\r\nFrame rate                               : 46.875 FPS (1024 SPF)\r\nCompression mode                         : Lossy\r\nStream size                              : 101 MiB (11%)\r\nLanguage                                 : Hindi","last_updated":"2018-09-23T12:11:19.958Z","parsed":{"xt":"urn:btih:710ee1f4c13b520d814cb10c236b1d88d5d01f47","dn":"Nawabzaade 2018 Hindi 720p WEB-DL x264 ESub [MW]","tr":["udp://exodus.desync.com:6969","udp://open.demonii.com:1337","udp://tracker.coppersurfer.tk:6969","udp://tracker.leechers-paradise.org:6969","udp://zer0day.ch:1337"],"infoHash":"710ee1f4c13b520d814cb10c236b1d88d5d01f47","infoHashBuffer":{"type":"Buffer","data":[113,14,225,244,193,59,82,13,129,76,177,12,35,107,29,136,213,208,31,71]},"name":"Nawabzaade 2018 Hindi 720p WEB-DL x264 ESub [MW]","announce":["udp://exodus.desync.com:6969","udp://open.demonii.com:1337","udp://tracker.coppersurfer.tk:6969","udp://tracker.leechers-paradise.org:6969","udp://zer0day.ch:1337"],"urlList":[]}}